<svg xmlns="http://www.w3.org/2000/svg" xmlns:dc="http://purl.org/dc/elements/1.1/" xmlns:ns2="http://creativecommons.org/ns#" xmlns:rdf="http://www.w3.org/1999/02/22-rdf-syntax-ns#" xmlns:xlink="http://www.w3.org/1999/xlink" width="305.0" height="313.0" viewBox="0.0 0.0 305.0 313.0">
<g id="graph0" class="graph" transform="scale(1.0 1.0) rotate(0) translate(4 309)">
<title>G</title>
<polygon fill="white" stroke="transparent" points="-4,4 -4,-309 301,-309 301,4 -4,4" />
<g id="clust3" class="cluster">
<title>cluster_legend</title>
</g>

<g id="node1" class="node">
<title>node1</title>
<svg width="156px" height="45px" viewBox="0 0 208.75625 60.868839" version="1.1" preserveAspectRatio="xMinYMin meet" x="4" y="-162">
 <metadata>
  <rdf:RDF>
   <ns2:Work>
    <dc:type rdf:resource="http://purl.org/dc/dcmitype/StillImage" />
    <dc:date>2022-07-29T09:32:23.145875</dc:date>
    <dc:format>image/svg+xml</dc:format>
    <dc:creator>
     <ns2:Agent>
      <dc:title>Matplotlib v3.5.2, https://matplotlib.org/</dc:title>
     </ns2:Agent>
    </dc:creator>
   </ns2:Work>
  </rdf:RDF>
 </metadata>
 <defs>
  <style type="text/css">*{stroke-linejoin: round; stroke-linecap: butt}</style>
 </defs>
 <g id="figure_1">
  <g id="patch_1">
   <path d="M 0 60.868839  L 208.75625 60.868839  L 208.75625 0  L 0 0  L 0 60.868839  z " style="fill: none" />
  </g>
  <g id="axes_1">
   <g id="patch_2">
    <path d="M 24.61625 28.881964  L 208.75625 28.881964  L 208.75625 1.701964  L 24.61625 1.701964  z " style="fill: #ffffff" />
   </g>
   <g id="matplotlib.axis_1">
    <g id="xtick_1">
     <g id="line2d_1">
      <path d="M 31.222169 28.881964  L 31.222169 1.701964  " clip-path="url(#p94ce115c96)" style="fill: none; stroke: #cccccc; stroke-linecap: round" />
     </g>
     <g id="text_1">
      
      <g style="fill: #444443" transform="translate(28.702794 44.374464)scale(0.08 -0.08)">
       <defs>
        <path id="IPAexGothic-31" d="M 2463 63  L 1900 63  L 1900 4103  Q 1372 3922 788 3797  L 684 4231  Q 1519 4441 2106 4731  L 2463 4731  L 2463 63  z " transform="scale(0.015625)" />
       </defs>
       <use xlink:href="#IPAexGothic-31" />
      </g>
     </g>
    </g>
    <g id="xtick_2">
     <g id="line2d_2">
      <path d="M 196.370151 28.881964  L 196.370151 1.701964  " clip-path="url(#p94ce115c96)" style="fill: none; stroke: #cccccc; stroke-linecap: round" />
     </g>
     <g id="text_2">
      
      <g style="fill: #444443" transform="translate(193.850776 44.374464)scale(0.08 -0.08)">
       <defs>
        <path id="IPAexGothic-33" d="M 2381 2419  Q 3506 2216 3506 1278  Q 3506 716 3128 356  Q 2709 -31 1944 -31  Q 797 -31 288 881  L 756 1131  Q 1109 441 1938 441  Q 2425 441 2694 691  Q 2950 928 2950 1291  Q 2950 1719 2566 1978  Q 2216 2213 1644 2213  L 1363 2213  L 1363 2669  L 1656 2669  Q 2231 2669 2534 2888  Q 2859 3119 2859 3509  Q 2859 3934 2494 4138  Q 2259 4278 1931 4278  Q 1238 4278 903 3578  L 434 3803  Q 897 4725 1938 4725  Q 2597 4725 3006 4394  Q 3416 4069 3416 3534  Q 3416 3028 3019 2706  Q 2763 2500 2381 2444  L 2381 2419  z " transform="scale(0.015625)" />
       </defs>
       <use xlink:href="#IPAexGothic-33" />
      </g>
     </g>
    </g>
    <g id="text_3">
     
     <g style="fill: #444443" transform="translate(99.014375 58.483839)scale(0.12 -0.12)">
      <defs>
       <path id="ArialMT-50" d="M 494 0  L 494 4581  L 2222 4581  Q 2678 4581 2919 4538  Q 3256 4481 3484 4323  Q 3713 4166 3852 3881  Q 3991 3597 3991 3256  Q 3991 2672 3619 2267  Q 3247 1863 2275 1863  L 1100 1863  L 1100 0  L 494 0  z M 1100 2403  L 2284 2403  Q 2872 2403 3119 2622  Q 3366 2841 3366 3238  Q 3366 3525 3220 3729  Q 3075 3934 2838 4000  Q 2684 4041 2272 4041  L 1100 4041  L 1100 2403  z " transform="scale(0.015625)" />
       <path id="ArialMT-63" d="M 2588 1216  L 3141 1144  Q 3050 572 2676 248  Q 2303 -75 1759 -75  Q 1078 -75 664 370  Q 250 816 250 1647  Q 250 2184 428 2587  Q 606 2991 970 3192  Q 1334 3394 1763 3394  Q 2303 3394 2647 3120  Q 2991 2847 3088 2344  L 2541 2259  Q 2463 2594 2264 2762  Q 2066 2931 1784 2931  Q 1359 2931 1093 2626  Q 828 2322 828 1663  Q 828 994 1084 691  Q 1341 388 1753 388  Q 2084 388 2306 591  Q 2528 794 2588 1216  z " transform="scale(0.015625)" />
       <path id="ArialMT-6c" d="M 409 0  L 409 4581  L 972 4581  L 972 0  L 409 0  z " transform="scale(0.015625)" />
       <path id="ArialMT-61" d="M 2588 409  Q 2275 144 1986 34  Q 1697 -75 1366 -75  Q 819 -75 525 192  Q 231 459 231 875  Q 231 1119 342 1320  Q 453 1522 633 1644  Q 813 1766 1038 1828  Q 1203 1872 1538 1913  Q 2219 1994 2541 2106  Q 2544 2222 2544 2253  Q 2544 2597 2384 2738  Q 2169 2928 1744 2928  Q 1347 2928 1158 2789  Q 969 2650 878 2297  L 328 2372  Q 403 2725 575 2942  Q 747 3159 1072 3276  Q 1397 3394 1825 3394  Q 2250 3394 2515 3294  Q 2781 3194 2906 3042  Q 3031 2891 3081 2659  Q 3109 2516 3109 2141  L 3109 1391  Q 3109 606 3145 398  Q 3181 191 3288 0  L 2700 0  Q 2613 175 2588 409  z M 2541 1666  Q 2234 1541 1622 1453  Q 1275 1403 1131 1340  Q 988 1278 909 1158  Q 831 1038 831 891  Q 831 666 1001 516  Q 1172 366 1500 366  Q 1825 366 2078 508  Q 2331 650 2450 897  Q 2541 1088 2541 1459  L 2541 1666  z " transform="scale(0.015625)" />
       <path id="ArialMT-73" d="M 197 991  L 753 1078  Q 800 744 1014 566  Q 1228 388 1613 388  Q 2000 388 2187 545  Q 2375 703 2375 916  Q 2375 1106 2209 1216  Q 2094 1291 1634 1406  Q 1016 1563 777 1677  Q 538 1791 414 1992  Q 291 2194 291 2438  Q 291 2659 392 2848  Q 494 3038 669 3163  Q 800 3259 1026 3326  Q 1253 3394 1513 3394  Q 1903 3394 2198 3281  Q 2494 3169 2634 2976  Q 2775 2784 2828 2463  L 2278 2388  Q 2241 2644 2061 2787  Q 1881 2931 1553 2931  Q 1166 2931 1000 2803  Q 834 2675 834 2503  Q 834 2394 903 2306  Q 972 2216 1119 2156  Q 1203 2125 1616 2013  Q 2213 1853 2448 1751  Q 2684 1650 2818 1456  Q 2953 1263 2953 975  Q 2953 694 2789 445  Q 2625 197 2315 61  Q 2006 -75 1616 -75  Q 969 -75 630 194  Q 291 463 197 991  z " transform="scale(0.015625)" />
      </defs>
      <use xlink:href="#ArialMT-50" />
      <use xlink:href="#ArialMT-63" x="66.699219" />
      <use xlink:href="#ArialMT-6c" x="116.699219" />
      <use xlink:href="#ArialMT-61" x="138.916016" />
      <use xlink:href="#ArialMT-73" x="194.53125" />
      <use xlink:href="#ArialMT-73" x="244.53125" />
     </g>
    </g>
   </g>
   <g id="matplotlib.axis_2">
    <g id="ytick_1">
     <g id="line2d_3">
      <path d="M 24.61625 28.881964  L 208.75625 28.881964  " clip-path="url(#p94ce115c96)" style="fill: none; stroke: #cccccc; stroke-linecap: round" />
     </g>
     <g id="text_4">
      
      <g style="fill: #444443" transform="translate(10.0775 31.878214)scale(0.08 -0.08)">
       <defs>
        <path id="IPAexGothic-30" d="M 2038 4725  Q 2881 4725 3334 3944  Q 3694 3325 3694 2344  Q 3694 1372 3334 741  Q 2888 -31 2016 -31  Q 1147 -31 700 741  Q 341 1372 341 2350  Q 341 3713 1000 4334  Q 1419 4725 2038 4725  z M 2016 4266  Q 1516 4266 1228 3759  Q 934 3247 934 2344  Q 934 1456 1222 947  Q 1513 447 2016 447  Q 2619 447 2909 1153  Q 3100 1622 3100 2375  Q 3100 3256 2806 3759  Q 2509 4266 2016 4266  z " transform="scale(0.015625)" />
       </defs>
       <use xlink:href="#IPAexGothic-30" />
      </g>
     </g>
    </g>
    <g id="ytick_2">
     <g id="line2d_4">
      <path d="M 24.61625 2.99625  L 208.75625 2.99625  " clip-path="url(#p94ce115c96)" style="fill: none; stroke: #cccccc; stroke-linecap: round" />
     </g>
     <g id="text_5">
      
      <g style="fill: #444443" transform="translate(0 5.9925)scale(0.08 -0.08)">
       <defs>
        <path id="IPAexGothic-32" d="M 3659 63  L 447 63  L 447 594  Q 825 1475 1894 2203  L 2072 2322  Q 2619 2697 2791 2906  Q 2988 3153 2988 3444  Q 2988 3772 2756 4003  Q 2500 4259 2084 4259  Q 1250 4259 991 3328  L 497 3506  Q 853 4725 2116 4725  Q 2806 4725 3216 4316  Q 3575 3947 3575 3425  Q 3575 3038 3344 2722  Q 3131 2416 2366 1938  L 2231 1856  Q 1256 1253 978 569  L 3659 569  L 3659 63  z " transform="scale(0.015625)" />
        <path id="IPAexGothic-36" d="M 1056 2328  Q 1509 2981 2234 2981  Q 2906 2981 3316 2513  Q 3675 2106 3675 1522  Q 3675 884 3272 434  Q 2853 -31 2178 -31  Q 1375 -31 922 581  Q 481 1178 481 2228  Q 481 3425 1013 4109  Q 1494 4725 2272 4725  Q 3191 4725 3609 4025  L 3150 3775  Q 2894 4266 2300 4266  Q 1119 4266 1031 2328  L 1056 2328  z M 2141 2547  Q 1684 2547 1384 2206  Q 1116 1900 1116 1541  Q 1116 1156 1353 844  Q 1672 428 2159 428  Q 2669 428 2941 844  Q 3125 1128 3125 1503  Q 3125 1944 2881 2228  Q 2600 2547 2141 2547  z " transform="scale(0.015625)" />
       </defs>
       <use xlink:href="#IPAexGothic-32" />
       <use xlink:href="#IPAexGothic-31" x="62.988281" />
       <use xlink:href="#IPAexGothic-36" x="125.976562" />
      </g>
     </g>
    </g>
   </g>
   <g id="patch_3">
    <path d="M 31.222169 28.881964  L 39.914168 28.881964  L 39.914168 19.294663  L 31.222169 19.294663  z " clip-path="url(#p94ce115c96)" style="fill: #fefebb; stroke: #444443; stroke-width: 0.5; stroke-linejoin: miter" />
   </g>
   <g id="patch_4">
    <path d="M 39.914168 28.881964  L 48.606167 28.881964  L 48.606167 28.881964  L 39.914168 28.881964  z " clip-path="url(#p94ce115c96)" style="fill: #fefebb; stroke: #444443; stroke-width: 0.5; stroke-linejoin: miter" />
   </g>
   <g id="patch_5">
    <path d="M 48.606167 28.881964  L 57.298166 28.881964  L 57.298166 28.881964  L 48.606167 28.881964  z " clip-path="url(#p94ce115c96)" style="fill: #fefebb; stroke: #444443; stroke-width: 0.5; stroke-linejoin: miter" />
   </g>
   <g id="patch_6">
    <path d="M 57.298166 28.881964  L 65.990166 28.881964  L 65.990166 28.881964  L 57.298166 28.881964  z " clip-path="url(#p94ce115c96)" style="fill: #fefebb; stroke: #444443; stroke-width: 0.5; stroke-linejoin: miter" />
   </g>
   <g id="patch_7">
    <path d="M 65.990166 28.881964  L 74.682165 28.881964  L 74.682165 28.881964  L 65.990166 28.881964  z " clip-path="url(#p94ce115c96)" style="fill: #fefebb; stroke: #444443; stroke-width: 0.5; stroke-linejoin: miter" />
   </g>
   <g id="patch_8">
    <path d="M 74.682165 28.881964  L 83.374164 28.881964  L 83.374164 28.881964  L 74.682165 28.881964  z " clip-path="url(#p94ce115c96)" style="fill: #fefebb; stroke: #444443; stroke-width: 0.5; stroke-linejoin: miter" />
   </g>
   <g id="patch_9">
    <path d="M 83.374164 28.881964  L 92.066163 28.881964  L 92.066163 28.881964  L 83.374164 28.881964  z " clip-path="url(#p94ce115c96)" style="fill: #fefebb; stroke: #444443; stroke-width: 0.5; stroke-linejoin: miter" />
   </g>
   <g id="patch_10">
    <path d="M 92.066163 28.881964  L 100.758162 28.881964  L 100.758162 28.881964  L 92.066163 28.881964  z " clip-path="url(#p94ce115c96)" style="fill: #fefebb; stroke: #444443; stroke-width: 0.5; stroke-linejoin: miter" />
   </g>
   <g id="patch_11">
    <path d="M 100.758162 28.881964  L 109.450161 28.881964  L 109.450161 28.881964  L 100.758162 28.881964  z " clip-path="url(#p94ce115c96)" style="fill: #fefebb; stroke: #444443; stroke-width: 0.5; stroke-linejoin: miter" />
   </g>
   <g id="patch_12">
    <path d="M 109.450161 28.881964  L 118.14216 28.881964  L 118.14216 17.257361  L 109.450161 17.257361  z " clip-path="url(#p94ce115c96)" style="fill: #fefebb; stroke: #444443; stroke-width: 0.5; stroke-linejoin: miter" />
   </g>
   <g id="patch_13">
    <path d="M 118.14216 28.881964  L 126.834159 28.881964  L 126.834159 28.881964  L 118.14216 28.881964  z " clip-path="url(#p94ce115c96)" style="fill: #fefebb; stroke: #444443; stroke-width: 0.5; stroke-linejoin: miter" />
   </g>
   <g id="patch_14">
    <path d="M 126.834159 28.881964  L 135.526158 28.881964  L 135.526158 28.881964  L 126.834159 28.881964  z " clip-path="url(#p94ce115c96)" style="fill: #fefebb; stroke: #444443; stroke-width: 0.5; stroke-linejoin: miter" />
   </g>
   <g id="patch_15">
    <path d="M 135.526158 28.881964  L 144.218157 28.881964  L 144.218157 28.881964  L 135.526158 28.881964  z " clip-path="url(#p94ce115c96)" style="fill: #fefebb; stroke: #444443; stroke-width: 0.5; stroke-linejoin: miter" />
   </g>
   <g id="patch_16">
    <path d="M 144.218157 28.881964  L 152.910156 28.881964  L 152.910156 28.881964  L 144.218157 28.881964  z " clip-path="url(#p94ce115c96)" style="fill: #fefebb; stroke: #444443; stroke-width: 0.5; stroke-linejoin: miter" />
   </g>
   <g id="patch_17">
    <path d="M 152.910156 28.881964  L 161.602155 28.881964  L 161.602155 28.881964  L 152.910156 28.881964  z " clip-path="url(#p94ce115c96)" style="fill: #fefebb; stroke: #444443; stroke-width: 0.5; stroke-linejoin: miter" />
   </g>
   <g id="patch_18">
    <path d="M 161.602155 28.881964  L 170.294154 28.881964  L 170.294154 28.881964  L 161.602155 28.881964  z " clip-path="url(#p94ce115c96)" style="fill: #fefebb; stroke: #444443; stroke-width: 0.5; stroke-linejoin: miter" />
   </g>
   <g id="patch_19">
    <path d="M 170.294154 28.881964  L 178.986153 28.881964  L 178.986153 28.881964  L 170.294154 28.881964  z " clip-path="url(#p94ce115c96)" style="fill: #fefebb; stroke: #444443; stroke-width: 0.5; stroke-linejoin: miter" />
   </g>
   <g id="patch_20">
    <path d="M 178.986153 28.881964  L 187.678152 28.881964  L 187.678152 28.881964  L 178.986153 28.881964  z " clip-path="url(#p94ce115c96)" style="fill: #fefebb; stroke: #444443; stroke-width: 0.5; stroke-linejoin: miter" />
   </g>
   <g id="patch_21">
    <path d="M 187.678152 28.881964  L 196.370151 28.881964  L 196.370151 28.881964  L 187.678152 28.881964  z " clip-path="url(#p94ce115c96)" style="fill: #fefebb; stroke: #444443; stroke-width: 0.5; stroke-linejoin: miter" />
   </g>
   <g id="patch_22">
    <path d="M 31.222169 19.294663  L 39.914168 19.294663  L 39.914168 2.99625  L 31.222169 2.99625  z " clip-path="url(#p94ce115c96)" style="fill: #a1dab4; stroke: #444443; stroke-width: 0.5; stroke-linejoin: miter" />
   </g>
   <g id="patch_23">
    <path d="M 39.914168 28.881964  L 48.606167 28.881964  L 48.606167 28.881964  L 39.914168 28.881964  z " clip-path="url(#p94ce115c96)" style="fill: #a1dab4; stroke: #444443; stroke-width: 0.5; stroke-linejoin: miter" />
   </g>
   <g id="patch_24">
    <path d="M 48.606167 28.881964  L 57.298166 28.881964  L 57.298166 28.881964  L 48.606167 28.881964  z " clip-path="url(#p94ce115c96)" style="fill: #a1dab4; stroke: #444443; stroke-width: 0.5; stroke-linejoin: miter" />
   </g>
   <g id="patch_25">
    <path d="M 57.298166 28.881964  L 65.990166 28.881964  L 65.990166 28.881964  L 57.298166 28.881964  z " clip-path="url(#p94ce115c96)" style="fill: #a1dab4; stroke: #444443; stroke-width: 0.5; stroke-linejoin: miter" />
   </g>
   <g id="patch_26">
    <path d="M 65.990166 28.881964  L 74.682165 28.881964  L 74.682165 28.881964  L 65.990166 28.881964  z " clip-path="url(#p94ce115c96)" style="fill: #a1dab4; stroke: #444443; stroke-width: 0.5; stroke-linejoin: miter" />
   </g>
   <g id="patch_27">
    <path d="M 74.682165 28.881964  L 83.374164 28.881964  L 83.374164 28.881964  L 74.682165 28.881964  z " clip-path="url(#p94ce115c96)" style="fill: #a1dab4; stroke: #444443; stroke-width: 0.5; stroke-linejoin: miter" />
   </g>
   <g id="patch_28">
    <path d="M 83.374164 28.881964  L 92.066163 28.881964  L 92.066163 28.881964  L 83.374164 28.881964  z " clip-path="url(#p94ce115c96)" style="fill: #a1dab4; stroke: #444443; stroke-width: 0.5; stroke-linejoin: miter" />
   </g>
   <g id="patch_29">
    <path d="M 92.066163 28.881964  L 100.758162 28.881964  L 100.758162 28.881964  L 92.066163 28.881964  z " clip-path="url(#p94ce115c96)" style="fill: #a1dab4; stroke: #444443; stroke-width: 0.5; stroke-linejoin: miter" />
   </g>
   <g id="patch_30">
    <path d="M 100.758162 28.881964  L 109.450161 28.881964  L 109.450161 28.881964  L 100.758162 28.881964  z " clip-path="url(#p94ce115c96)" style="fill: #a1dab4; stroke: #444443; stroke-width: 0.5; stroke-linejoin: miter" />
   </g>
   <g id="patch_31">
    <path d="M 109.450161 17.257361  L 118.14216 17.257361  L 118.14216 6.831171  L 109.450161 6.831171  z " clip-path="url(#p94ce115c96)" style="fill: #a1dab4; stroke: #444443; stroke-width: 0.5; stroke-linejoin: miter" />
   </g>
   <g id="patch_32">
    <path d="M 118.14216 28.881964  L 126.834159 28.881964  L 126.834159 28.881964  L 118.14216 28.881964  z " clip-path="url(#p94ce115c96)" style="fill: #a1dab4; stroke: #444443; stroke-width: 0.5; stroke-linejoin: miter" />
   </g>
   <g id="patch_33">
    <path d="M 126.834159 28.881964  L 135.526158 28.881964  L 135.526158 28.881964  L 126.834159 28.881964  z " clip-path="url(#p94ce115c96)" style="fill: #a1dab4; stroke: #444443; stroke-width: 0.5; stroke-linejoin: miter" />
   </g>
   <g id="patch_34">
    <path d="M 135.526158 28.881964  L 144.218157 28.881964  L 144.218157 28.881964  L 135.526158 28.881964  z " clip-path="url(#p94ce115c96)" style="fill: #a1dab4; stroke: #444443; stroke-width: 0.5; stroke-linejoin: miter" />
   </g>
   <g id="patch_35">
    <path d="M 144.218157 28.881964  L 152.910156 28.881964  L 152.910156 28.881964  L 144.218157 28.881964  z " clip-path="url(#p94ce115c96)" style="fill: #a1dab4; stroke: #444443; stroke-width: 0.5; stroke-linejoin: miter" />
   </g>
   <g id="patch_36">
    <path d="M 152.910156 28.881964  L 161.602155 28.881964  L 161.602155 28.881964  L 152.910156 28.881964  z " clip-path="url(#p94ce115c96)" style="fill: #a1dab4; stroke: #444443; stroke-width: 0.5; stroke-linejoin: miter" />
   </g>
   <g id="patch_37">
    <path d="M 161.602155 28.881964  L 170.294154 28.881964  L 170.294154 28.881964  L 161.602155 28.881964  z " clip-path="url(#p94ce115c96)" style="fill: #a1dab4; stroke: #444443; stroke-width: 0.5; stroke-linejoin: miter" />
   </g>
   <g id="patch_38">
    <path d="M 170.294154 28.881964  L 178.986153 28.881964  L 178.986153 28.881964  L 170.294154 28.881964  z " clip-path="url(#p94ce115c96)" style="fill: #a1dab4; stroke: #444443; stroke-width: 0.5; stroke-linejoin: miter" />
   </g>
   <g id="patch_39">
    <path d="M 178.986153 28.881964  L 187.678152 28.881964  L 187.678152 28.881964  L 178.986153 28.881964  z " clip-path="url(#p94ce115c96)" style="fill: #a1dab4; stroke: #444443; stroke-width: 0.5; stroke-linejoin: miter" />
   </g>
   <g id="patch_40">
    <path d="M 187.678152 28.881964  L 196.370151 28.881964  L 196.370151 28.881964  L 187.678152 28.881964  z " clip-path="url(#p94ce115c96)" style="fill: #a1dab4; stroke: #444443; stroke-width: 0.5; stroke-linejoin: miter" />
   </g>
   <g id="patch_41">
    <path d="M 72.509165 29.697364  L 69.194645 37.035964  L 75.823685 37.035964  z " style="fill: #444443; stroke: #ffffff; stroke-linejoin: miter" />
   </g>
   <g id="patch_42">
    <path d="M 24.61625 28.881964  L 24.61625 1.701964  " style="fill: none; stroke: #cccccc; stroke-width: 0.3; stroke-linejoin: miter; stroke-linecap: square" />
   </g>
   <g id="patch_43">
    <path d="M 24.61625 28.881964  L 208.75625 28.881964  " style="fill: none; stroke: #cccccc; stroke-width: 0.3; stroke-linejoin: miter; stroke-linecap: square" />
   </g>
   <g id="text_6">
    
    <g style="fill: #444443" transform="translate(64.72479 45.189964)scale(0.08 -0.08)">
     <defs>
      <path id="ArialMT-31" d="M 2384 0  L 1822 0  L 1822 3584  Q 1619 3391 1289 3197  Q 959 3003 697 2906  L 697 3450  Q 1169 3672 1522 3987  Q 1875 4303 2022 4600  L 2384 4600  L 2384 0  z " transform="scale(0.015625)" />
      <path id="ArialMT-2e" d="M 581 0  L 581 641  L 1222 641  L 1222 0  L 581 0  z " transform="scale(0.015625)" />
      <path id="ArialMT-35" d="M 266 1200  L 856 1250  Q 922 819 1161 601  Q 1400 384 1738 384  Q 2144 384 2425 690  Q 2706 997 2706 1503  Q 2706 1984 2436 2262  Q 2166 2541 1728 2541  Q 1456 2541 1237 2417  Q 1019 2294 894 2097  L 366 2166  L 809 4519  L 3088 4519  L 3088 3981  L 1259 3981  L 1013 2750  Q 1425 3038 1878 3038  Q 2478 3038 2890 2622  Q 3303 2206 3303 1553  Q 3303 931 2941 478  Q 2500 -78 1738 -78  Q 1113 -78 717 272  Q 322 622 266 1200  z " transform="scale(0.015625)" />
      <path id="ArialMT-30" d="M 266 2259  Q 266 3072 433 3567  Q 600 4063 929 4331  Q 1259 4600 1759 4600  Q 2128 4600 2406 4451  Q 2684 4303 2865 4023  Q 3047 3744 3150 3342  Q 3253 2941 3253 2259  Q 3253 1453 3087 958  Q 2922 463 2592 192  Q 2263 -78 1759 -78  Q 1097 -78 719 397  Q 266 969 266 2259  z M 844 2259  Q 844 1131 1108 757  Q 1372 384 1759 384  Q 2147 384 2411 759  Q 2675 1134 2675 2259  Q 2675 3391 2411 3762  Q 2147 4134 1753 4134  Q 1366 4134 1134 3806  Q 844 3388 844 2259  z " transform="scale(0.015625)" />
     </defs>
     <use xlink:href="#ArialMT-31" />
     <use xlink:href="#ArialMT-2e" x="55.615234" />
     <use xlink:href="#ArialMT-35" x="83.398438" />
     <use xlink:href="#ArialMT-30" x="139.013672" />
    </g>
   </g>
  </g>
 </g>
 <defs>
  <clipPath id="p94ce115c96">
   <rect x="24.61625" y="1.701964" width="184.14" height="27.18" />
  </clipPath>
 </defs>
</svg></g>

<g id="node3" class="node">
<title>leaf2</title>
<polygon fill="none" stroke="#444443" stroke-width="0" points="75.5,-82 8.5,-82 8.5,0 75.5,0 75.5,-82" />
<svg width="59px" height="74px" viewBox="0 0 78.519946 99.410658" version="1.1" preserveAspectRatio="xMinYMin meet" x="13" y="-78">
 <metadata>
  <rdf:RDF>
   <ns2:Work>
    <dc:type rdf:resource="http://purl.org/dc/dcmitype/StillImage" />
    <dc:date>2022-07-29T09:32:23.250400</dc:date>
    <dc:format>image/svg+xml</dc:format>
    <dc:creator>
     <ns2:Agent>
      <dc:title>Matplotlib v3.5.2, https://matplotlib.org/</dc:title>
     </ns2:Agent>
    </dc:creator>
   </ns2:Work>
  </rdf:RDF>
 </metadata>
 <defs>
  <style type="text/css">*{stroke-linejoin: round; stroke-linecap: butt}</style>
 </defs>
 <g id="figure_1">
  <g id="patch_1">
   <path d="M 0 99.410658  L 78.519946 99.410658  L 78.519946 0  L 0 0  L 0 99.410658  z " style="fill: none" />
  </g>
  <g id="axes_1">
   <g id="patch_2">
    <path d="M 78.519946 39.259889  C 78.519946 31.593105 76.274165 24.091672 72.061198 17.686167  C 67.848231 11.280662 61.849804 6.247384 54.810039 3.210725  C 47.770274 0.174067 39.99283 -0.734986 32.442521 0.596336  C 24.892212 1.927659 17.894719 5.441932 12.318102 10.703198  L 39.259946 39.259889  L 78.519946 39.259889  z " style="fill: #fefebb; stroke: #444443; stroke-width: 0.5; stroke-linejoin: miter" />
   </g>
   <g id="patch_3">
    <path d="M 12.318102 10.703198  C 7.587064 15.166701 4.038567 20.736724 1.992681 26.910859  C -0.053205 33.084993 -0.533062 39.671853 0.596393 46.077313  C 1.725848 52.482773 4.429603 58.508276 8.463784 63.610331  C 12.497966 68.712386 17.737521 72.732839 23.70985 75.309051  C 29.682179 77.885264 36.202151 78.937377 42.681675 78.370493  C 49.161199 77.80361 55.399421 75.6353 60.833663 72.061144  C 66.267906 68.486988 70.729718 63.617776 73.81665 57.892706  C 76.903582 52.167635 78.519945 45.764171 78.519946 39.259896  L 39.259946 39.259889  L 12.318102 10.703198  z " style="fill: #a1dab4; stroke: #444443; stroke-width: 0.5; stroke-linejoin: miter" />
   </g>
   <g id="text_1">
    
    <g style="fill: #444443" transform="translate(26.621977 88.10272)scale(0.09 -0.09)">
     <defs>
      <path id="ArialMT-6e" d="M 422 0  L 422 3319  L 928 3319  L 928 2847  Q 1294 3394 1984 3394  Q 2284 3394 2536 3286  Q 2788 3178 2913 3003  Q 3038 2828 3088 2588  Q 3119 2431 3119 2041  L 3119 0  L 2556 0  L 2556 2019  Q 2556 2363 2490 2533  Q 2425 2703 2258 2804  Q 2091 2906 1866 2906  Q 1506 2906 1245 2678  Q 984 2450 984 1813  L 984 0  L 422 0  z " transform="scale(0.015625)" />
      <path id="ArialMT-3d" d="M 3381 2694  L 356 2694  L 356 3219  L 3381 3219  L 3381 2694  z M 3381 1303  L 356 1303  L 356 1828  L 3381 1828  L 3381 1303  z " transform="scale(0.015625)" />
      <path id="ArialMT-32" d="M 3222 541  L 3222 0  L 194 0  Q 188 203 259 391  Q 375 700 629 1000  Q 884 1300 1366 1694  Q 2113 2306 2375 2664  Q 2638 3022 2638 3341  Q 2638 3675 2398 3904  Q 2159 4134 1775 4134  Q 1369 4134 1125 3890  Q 881 3647 878 3216  L 300 3275  Q 359 3922 746 4261  Q 1134 4600 1788 4600  Q 2447 4600 2831 4234  Q 3216 3869 3216 3328  Q 3216 3053 3103 2787  Q 2991 2522 2730 2228  Q 2469 1934 1863 1422  Q 1356 997 1212 845  Q 1069 694 975 541  L 3222 541  z " transform="scale(0.015625)" />
      <path id="ArialMT-31" d="M 2384 0  L 1822 0  L 1822 3584  Q 1619 3391 1289 3197  Q 959 3003 697 2906  L 697 3450  Q 1169 3672 1522 3987  Q 1875 4303 2022 4600  L 2384 4600  L 2384 0  z " transform="scale(0.015625)" />
      <path id="ArialMT-36" d="M 3184 3459  L 2625 3416  Q 2550 3747 2413 3897  Q 2184 4138 1850 4138  Q 1581 4138 1378 3988  Q 1113 3794 959 3422  Q 806 3050 800 2363  Q 1003 2672 1297 2822  Q 1591 2972 1913 2972  Q 2475 2972 2870 2558  Q 3266 2144 3266 1488  Q 3266 1056 3080 686  Q 2894 316 2569 119  Q 2244 -78 1831 -78  Q 1128 -78 684 439  Q 241 956 241 2144  Q 241 3472 731 4075  Q 1159 4600 1884 4600  Q 2425 4600 2770 4297  Q 3116 3994 3184 3459  z M 888 1484  Q 888 1194 1011 928  Q 1134 663 1356 523  Q 1578 384 1822 384  Q 2178 384 2434 671  Q 2691 959 2691 1453  Q 2691 1928 2437 2201  Q 2184 2475 1800 2475  Q 1419 2475 1153 2201  Q 888 1928 888 1484  z " transform="scale(0.015625)" />
     </defs>
     <use xlink:href="#ArialMT-6e" />
     <use xlink:href="#ArialMT-3d" x="55.615234" />
     <use xlink:href="#ArialMT-32" x="114.013672" />
     <use xlink:href="#ArialMT-31" x="169.628906" />
     <use xlink:href="#ArialMT-36" x="225.244141" />
    </g>
    
    <g style="fill: #444443" transform="translate(30.005415 97.621908)scale(0.09 -0.09)">
     <defs>
      <path id="ArialMT-61" d="M 2588 409  Q 2275 144 1986 34  Q 1697 -75 1366 -75  Q 819 -75 525 192  Q 231 459 231 875  Q 231 1119 342 1320  Q 453 1522 633 1644  Q 813 1766 1038 1828  Q 1203 1872 1538 1913  Q 2219 1994 2541 2106  Q 2544 2222 2544 2253  Q 2544 2597 2384 2738  Q 2169 2928 1744 2928  Q 1347 2928 1158 2789  Q 969 2650 878 2297  L 328 2372  Q 403 2725 575 2942  Q 747 3159 1072 3276  Q 1397 3394 1825 3394  Q 2250 3394 2515 3294  Q 2781 3194 2906 3042  Q 3031 2891 3081 2659  Q 3109 2516 3109 2141  L 3109 1391  Q 3109 606 3145 398  Q 3181 191 3288 0  L 2700 0  Q 2613 175 2588 409  z M 2541 1666  Q 2234 1541 1622 1453  Q 1275 1403 1131 1340  Q 988 1278 909 1158  Q 831 1038 831 891  Q 831 666 1001 516  Q 1172 366 1500 366  Q 1825 366 2078 508  Q 2331 650 2450 897  Q 2541 1088 2541 1459  L 2541 1666  z " transform="scale(0.015625)" />
      <path id="ArialMT-6c" d="M 409 0  L 409 4581  L 972 4581  L 972 0  L 409 0  z " transform="scale(0.015625)" />
      <path id="ArialMT-69" d="M 425 3934  L 425 4581  L 988 4581  L 988 3934  L 425 3934  z M 425 0  L 425 3319  L 988 3319  L 988 0  L 425 0  z " transform="scale(0.015625)" />
      <path id="ArialMT-76" d="M 1344 0  L 81 3319  L 675 3319  L 1388 1331  Q 1503 1009 1600 663  Q 1675 925 1809 1294  L 2547 3319  L 3125 3319  L 1869 0  L 1344 0  z " transform="scale(0.015625)" />
      <path id="ArialMT-65" d="M 2694 1069  L 3275 997  Q 3138 488 2766 206  Q 2394 -75 1816 -75  Q 1088 -75 661 373  Q 234 822 234 1631  Q 234 2469 665 2931  Q 1097 3394 1784 3394  Q 2450 3394 2872 2941  Q 3294 2488 3294 1666  Q 3294 1616 3291 1516  L 816 1516  Q 847 969 1125 678  Q 1403 388 1819 388  Q 2128 388 2347 550  Q 2566 713 2694 1069  z M 847 1978  L 2700 1978  Q 2663 2397 2488 2606  Q 2219 2931 1791 2931  Q 1403 2931 1139 2672  Q 875 2413 847 1978  z " transform="scale(0.015625)" />
     </defs>
     <use xlink:href="#ArialMT-61" />
     <use xlink:href="#ArialMT-6c" x="55.615234" />
     <use xlink:href="#ArialMT-69" x="77.832031" />
     <use xlink:href="#ArialMT-76" x="100.048828" />
     <use xlink:href="#ArialMT-65" x="150.048828" />
    </g>
   </g>
  </g>
 </g>
</svg></g>

<g id="edge1" class="edge">
<title>node1-&gt;leaf2</title>
<path fill="none" stroke="#444443" stroke-width="0.3" d="M71.39,-113.26C67.94,-104.91 64.02,-95.4 60.19,-86.1" />
<polygon fill="#444443" stroke="#444443" stroke-width="0.3" points="61.37,-85.3 58.55,-82.14 58.78,-86.37 61.37,-85.3" />
</g>

<g id="node4" class="node">
<title>leaf3</title>
<polygon fill="none" stroke="#444443" stroke-width="0" points="156.5,-82 89.5,-82 89.5,0 156.5,0 156.5,-82" />
<svg width="59px" height="74px" viewBox="0 0 78.519978 99.410762" version="1.1" preserveAspectRatio="xMinYMin meet" x="94" y="-78">
 <metadata>
  <rdf:RDF>
   <ns2:Work>
    <dc:type rdf:resource="http://purl.org/dc/dcmitype/StillImage" />
    <dc:date>2022-07-29T09:32:23.288958</dc:date>
    <dc:format>image/svg+xml</dc:format>
    <dc:creator>
     <ns2:Agent>
      <dc:title>Matplotlib v3.5.2, https://matplotlib.org/</dc:title>
     </ns2:Agent>
    </dc:creator>
   </ns2:Work>
  </rdf:RDF>
 </metadata>
 <defs>
  <style type="text/css">*{stroke-linejoin: round; stroke-linecap: butt}</style>
 </defs>
 <g id="figure_1">
  <g id="patch_1">
   <path d="M -0 99.410762  L 78.519978 99.410762  L 78.519978 0  L -0 0  L -0 99.410762  z " style="fill: none" />
  </g>
  <g id="axes_1">
   <g id="patch_2">
    <path d="M 78.519978 39.259993  C 78.519978 33.822293 77.390256 28.44343 75.202601 23.465202  C 73.014946 18.486975 69.816699 14.017114 65.811093 10.339656  C 61.805486 6.662198 57.079202 3.856724 51.932572 2.101509  C 46.785942 0.346293 41.33034 -0.320681 35.912443 0.142969  C 30.494546 0.606618 25.231598 2.190859 20.458032 4.795019  C 15.684466 7.39918 11.503584 10.966906 8.18106 15.271486  C 4.858536 19.576067 2.466269 24.52435 1.156277 29.801897  C -0.153715 35.079444 -0.353084 40.572048 0.570838 45.930681  L 39.259978 39.259993  L 78.519978 39.259993  z " style="fill: #fefebb; stroke: #444443; stroke-width: 0.5; stroke-linejoin: miter" />
   </g>
   <g id="patch_3">
    <path d="M 0.570838 45.930681  C 2.241042 55.617649 7.489948 64.332682 15.271472 70.338912  C 23.052997 76.345143 32.813414 79.215172 42.607516 78.377017  C 52.401618 77.538862 61.532465 73.052165 68.180319 65.811104  C 74.828173 58.570043 78.51998 49.089886 78.519978 39.259986  L 39.259978 39.259993  L 0.570838 45.930681  z " style="fill: #a1dab4; stroke: #444443; stroke-width: 0.5; stroke-linejoin: miter" />
   </g>
   <g id="text_1">
    
    <g style="fill: #444443" transform="translate(26.622009 88.102824)scale(0.09 -0.09)">
     <defs>
      <path id="ArialMT-6e" d="M 422 0  L 422 3319  L 928 3319  L 928 2847  Q 1294 3394 1984 3394  Q 2284 3394 2536 3286  Q 2788 3178 2913 3003  Q 3038 2828 3088 2588  Q 3119 2431 3119 2041  L 3119 0  L 2556 0  L 2556 2019  Q 2556 2363 2490 2533  Q 2425 2703 2258 2804  Q 2091 2906 1866 2906  Q 1506 2906 1245 2678  Q 984 2450 984 1813  L 984 0  L 422 0  z " transform="scale(0.015625)" />
      <path id="ArialMT-3d" d="M 3381 2694  L 356 2694  L 356 3219  L 3381 3219  L 3381 2694  z M 3381 1303  L 356 1303  L 356 1828  L 3381 1828  L 3381 1303  z " transform="scale(0.015625)" />
      <path id="ArialMT-31" d="M 2384 0  L 1822 0  L 1822 3584  Q 1619 3391 1289 3197  Q 959 3003 697 2906  L 697 3450  Q 1169 3672 1522 3987  Q 1875 4303 2022 4600  L 2384 4600  L 2384 0  z " transform="scale(0.015625)" />
      <path id="ArialMT-38" d="M 1131 2484  Q 781 2613 612 2850  Q 444 3088 444 3419  Q 444 3919 803 4259  Q 1163 4600 1759 4600  Q 2359 4600 2725 4251  Q 3091 3903 3091 3403  Q 3091 3084 2923 2848  Q 2756 2613 2416 2484  Q 2838 2347 3058 2040  Q 3278 1734 3278 1309  Q 3278 722 2862 322  Q 2447 -78 1769 -78  Q 1091 -78 675 323  Q 259 725 259 1325  Q 259 1772 486 2073  Q 713 2375 1131 2484  z M 1019 3438  Q 1019 3113 1228 2906  Q 1438 2700 1772 2700  Q 2097 2700 2305 2904  Q 2513 3109 2513 3406  Q 2513 3716 2298 3927  Q 2084 4138 1766 4138  Q 1444 4138 1231 3931  Q 1019 3725 1019 3438  z M 838 1322  Q 838 1081 952 856  Q 1066 631 1291 507  Q 1516 384 1775 384  Q 2178 384 2440 643  Q 2703 903 2703 1303  Q 2703 1709 2433 1975  Q 2163 2241 1756 2241  Q 1359 2241 1098 1978  Q 838 1716 838 1322  z " transform="scale(0.015625)" />
      <path id="ArialMT-34" d="M 2069 0  L 2069 1097  L 81 1097  L 81 1613  L 2172 4581  L 2631 4581  L 2631 1613  L 3250 1613  L 3250 1097  L 2631 1097  L 2631 0  L 2069 0  z M 2069 1613  L 2069 3678  L 634 1613  L 2069 1613  z " transform="scale(0.015625)" />
     </defs>
     <use xlink:href="#ArialMT-6e" />
     <use xlink:href="#ArialMT-3d" x="55.615234" />
     <use xlink:href="#ArialMT-31" x="114.013672" />
     <use xlink:href="#ArialMT-38" x="169.628906" />
     <use xlink:href="#ArialMT-34" x="225.244141" />
    </g>
    
    <g style="fill: #444443" transform="translate(29.25029 97.622012)scale(0.09 -0.09)">
     <defs>
      <path id="ArialMT-64" d="M 2575 0  L 2575 419  Q 2259 -75 1647 -75  Q 1250 -75 917 144  Q 584 363 401 755  Q 219 1147 219 1656  Q 219 2153 384 2558  Q 550 2963 881 3178  Q 1213 3394 1622 3394  Q 1922 3394 2156 3267  Q 2391 3141 2538 2938  L 2538 4581  L 3097 4581  L 3097 0  L 2575 0  z M 797 1656  Q 797 1019 1065 703  Q 1334 388 1700 388  Q 2069 388 2326 689  Q 2584 991 2584 1609  Q 2584 2291 2321 2609  Q 2059 2928 1675 2928  Q 1300 2928 1048 2622  Q 797 2316 797 1656  z " transform="scale(0.015625)" />
      <path id="ArialMT-65" d="M 2694 1069  L 3275 997  Q 3138 488 2766 206  Q 2394 -75 1816 -75  Q 1088 -75 661 373  Q 234 822 234 1631  Q 234 2469 665 2931  Q 1097 3394 1784 3394  Q 2450 3394 2872 2941  Q 3294 2488 3294 1666  Q 3294 1616 3291 1516  L 816 1516  Q 847 969 1125 678  Q 1403 388 1819 388  Q 2128 388 2347 550  Q 2566 713 2694 1069  z M 847 1978  L 2700 1978  Q 2663 2397 2488 2606  Q 2219 2931 1791 2931  Q 1403 2931 1139 2672  Q 875 2413 847 1978  z " transform="scale(0.015625)" />
      <path id="ArialMT-61" d="M 2588 409  Q 2275 144 1986 34  Q 1697 -75 1366 -75  Q 819 -75 525 192  Q 231 459 231 875  Q 231 1119 342 1320  Q 453 1522 633 1644  Q 813 1766 1038 1828  Q 1203 1872 1538 1913  Q 2219 1994 2541 2106  Q 2544 2222 2544 2253  Q 2544 2597 2384 2738  Q 2169 2928 1744 2928  Q 1347 2928 1158 2789  Q 969 2650 878 2297  L 328 2372  Q 403 2725 575 2942  Q 747 3159 1072 3276  Q 1397 3394 1825 3394  Q 2250 3394 2515 3294  Q 2781 3194 2906 3042  Q 3031 2891 3081 2659  Q 3109 2516 3109 2141  L 3109 1391  Q 3109 606 3145 398  Q 3181 191 3288 0  L 2700 0  Q 2613 175 2588 409  z M 2541 1666  Q 2234 1541 1622 1453  Q 1275 1403 1131 1340  Q 988 1278 909 1158  Q 831 1038 831 891  Q 831 666 1001 516  Q 1172 366 1500 366  Q 1825 366 2078 508  Q 2331 650 2450 897  Q 2541 1088 2541 1459  L 2541 1666  z " transform="scale(0.015625)" />
     </defs>
     <use xlink:href="#ArialMT-64" />
     <use xlink:href="#ArialMT-65" x="55.615234" />
     <use xlink:href="#ArialMT-61" x="111.230469" />
     <use xlink:href="#ArialMT-64" x="166.845703" />
    </g>
   </g>
  </g>
 </g>
</svg></g>

<g id="edge2" class="edge">
<title>node1-&gt;leaf3</title>
<path fill="none" stroke="#444443" stroke-width="0.3" d="M92.88,-113.26C96.41,-104.91 100.43,-95.4 104.36,-86.1" />
<polygon fill="#444443" stroke="#444443" stroke-width="0.3" points="105.77,-86.37 106.03,-82.14 103.19,-85.28 105.77,-86.37" />
</g>

<g id="node5" class="node">
<title>leaf4</title>
<polygon fill="none" stroke="#444443" stroke-width="0" points="244.5,-181 177.5,-181 177.5,-99 244.5,-99 244.5,-181" />
<svg width="59px" height="74px" viewBox="0 0 78.519997 99.410767" version="1.1" preserveAspectRatio="xMinYMin meet" x="182" y="-177">
 <metadata>
  <rdf:RDF>
   <ns2:Work>
    <dc:type rdf:resource="http://purl.org/dc/dcmitype/StillImage" />
    <dc:date>2022-07-29T09:32:23.323361</dc:date>
    <dc:format>image/svg+xml</dc:format>
    <dc:creator>
     <ns2:Agent>
      <dc:title>Matplotlib v3.5.2, https://matplotlib.org/</dc:title>
     </ns2:Agent>
    </dc:creator>
   </ns2:Work>
  </rdf:RDF>
 </metadata>
 <defs>
  <style type="text/css">*{stroke-linejoin: round; stroke-linecap: butt}</style>
 </defs>
 <g id="figure_1">
  <g id="patch_1">
   <path d="M 0 99.410767  L 78.519997 99.410767  L 78.519997 0  L 0 0  L 0 99.410767  z " style="fill: none" />
  </g>
  <g id="axes_1">
   <g id="patch_2">
    <path d="M 78.519997 39.259998  C 78.519997 35.35924 77.938645 31.480173 76.795124 27.750793  C 75.651604 24.021414 73.958631 20.483197 71.77207 17.252893  C 69.585509 14.022589 66.929677 11.136123 63.892206 8.68874  C 60.854736 6.241356 57.469409 4.260272 53.84793 2.810858  C 50.226451 1.361444 46.409095 0.459819 42.521823 0.135734  C 38.634552 -0.188352 34.720595 0.068707 30.909103 0.898427  C 27.09761 1.728147 23.430969 3.121302 20.030168 5.031921  C 16.629367 6.94254 13.532227 9.349375 10.840944 12.173008  C 8.14966 14.996642 5.894164 18.205671 4.148879 21.694208  C 2.403594 25.182745 1.187929 28.911994 0.541999 32.7589  C -0.103931 36.605806 -0.172943 40.527587 0.33724 44.394838  C 0.847422 48.262088 1.931126 52.031799 3.552591 55.579582  C 5.174057 59.127364 7.315252 62.413763 9.905524 65.330337  C 12.495796 68.246911 15.506338 70.761224 18.837811 72.790312  C 22.169285 74.8194 25.784639 76.340697 29.564579 77.304005  C 33.34452 78.267314 37.247009 78.661919 41.143276 78.474802  L 39.259997 39.259998  L 78.519997 39.259998  z " style="fill: #fefebb; stroke: #444443; stroke-width: 0.5; stroke-linejoin: miter" />
   </g>
   <g id="patch_3">
    <path d="M 41.143276 78.474802  C 51.21462 77.991129 60.722436 73.645711 67.679052 66.346986  C 74.635669 59.04826 78.519999 49.342942 78.519997 39.259991  L 39.259997 39.259998  L 41.143276 78.474802  z " style="fill: #a1dab4; stroke: #444443; stroke-width: 0.5; stroke-linejoin: miter" />
   </g>
   <g id="text_1">
    
    <g style="fill: #444443" transform="translate(26.622028 88.10283)scale(0.09 -0.09)">
     <defs>
      <path id="ArialMT-6e" d="M 422 0  L 422 3319  L 928 3319  L 928 2847  Q 1294 3394 1984 3394  Q 2284 3394 2536 3286  Q 2788 3178 2913 3003  Q 3038 2828 3088 2588  Q 3119 2431 3119 2041  L 3119 0  L 2556 0  L 2556 2019  Q 2556 2363 2490 2533  Q 2425 2703 2258 2804  Q 2091 2906 1866 2906  Q 1506 2906 1245 2678  Q 984 2450 984 1813  L 984 0  L 422 0  z " transform="scale(0.015625)" />
      <path id="ArialMT-3d" d="M 3381 2694  L 356 2694  L 356 3219  L 3381 3219  L 3381 2694  z M 3381 1303  L 356 1303  L 356 1828  L 3381 1828  L 3381 1303  z " transform="scale(0.015625)" />
      <path id="ArialMT-34" d="M 2069 0  L 2069 1097  L 81 1097  L 81 1613  L 2172 4581  L 2631 4581  L 2631 1613  L 3250 1613  L 3250 1097  L 2631 1097  L 2631 0  L 2069 0  z M 2069 1613  L 2069 3678  L 634 1613  L 2069 1613  z " transform="scale(0.015625)" />
      <path id="ArialMT-39" d="M 350 1059  L 891 1109  Q 959 728 1153 556  Q 1347 384 1650 384  Q 1909 384 2104 503  Q 2300 622 2425 820  Q 2550 1019 2634 1356  Q 2719 1694 2719 2044  Q 2719 2081 2716 2156  Q 2547 1888 2255 1720  Q 1963 1553 1622 1553  Q 1053 1553 659 1965  Q 266 2378 266 3053  Q 266 3750 677 4175  Q 1088 4600 1706 4600  Q 2153 4600 2523 4359  Q 2894 4119 3086 3673  Q 3278 3228 3278 2384  Q 3278 1506 3087 986  Q 2897 466 2520 194  Q 2144 -78 1638 -78  Q 1100 -78 759 220  Q 419 519 350 1059  z M 2653 3081  Q 2653 3566 2395 3850  Q 2138 4134 1775 4134  Q 1400 4134 1122 3828  Q 844 3522 844 3034  Q 844 2597 1108 2323  Q 1372 2050 1759 2050  Q 2150 2050 2401 2323  Q 2653 2597 2653 3081  z " transform="scale(0.015625)" />
      <path id="ArialMT-31" d="M 2384 0  L 1822 0  L 1822 3584  Q 1619 3391 1289 3197  Q 959 3003 697 2906  L 697 3450  Q 1169 3672 1522 3987  Q 1875 4303 2022 4600  L 2384 4600  L 2384 0  z " transform="scale(0.015625)" />
     </defs>
     <use xlink:href="#ArialMT-6e" />
     <use xlink:href="#ArialMT-3d" x="55.615234" />
     <use xlink:href="#ArialMT-34" x="114.013672" />
     <use xlink:href="#ArialMT-39" x="169.628906" />
     <use xlink:href="#ArialMT-31" x="225.244141" />
    </g>
    
    <g style="fill: #444443" transform="translate(29.250309 97.622017)scale(0.09 -0.09)">
     <defs>
      <path id="ArialMT-64" d="M 2575 0  L 2575 419  Q 2259 -75 1647 -75  Q 1250 -75 917 144  Q 584 363 401 755  Q 219 1147 219 1656  Q 219 2153 384 2558  Q 550 2963 881 3178  Q 1213 3394 1622 3394  Q 1922 3394 2156 3267  Q 2391 3141 2538 2938  L 2538 4581  L 3097 4581  L 3097 0  L 2575 0  z M 797 1656  Q 797 1019 1065 703  Q 1334 388 1700 388  Q 2069 388 2326 689  Q 2584 991 2584 1609  Q 2584 2291 2321 2609  Q 2059 2928 1675 2928  Q 1300 2928 1048 2622  Q 797 2316 797 1656  z " transform="scale(0.015625)" />
      <path id="ArialMT-65" d="M 2694 1069  L 3275 997  Q 3138 488 2766 206  Q 2394 -75 1816 -75  Q 1088 -75 661 373  Q 234 822 234 1631  Q 234 2469 665 2931  Q 1097 3394 1784 3394  Q 2450 3394 2872 2941  Q 3294 2488 3294 1666  Q 3294 1616 3291 1516  L 816 1516  Q 847 969 1125 678  Q 1403 388 1819 388  Q 2128 388 2347 550  Q 2566 713 2694 1069  z M 847 1978  L 2700 1978  Q 2663 2397 2488 2606  Q 2219 2931 1791 2931  Q 1403 2931 1139 2672  Q 875 2413 847 1978  z " transform="scale(0.015625)" />
      <path id="ArialMT-61" d="M 2588 409  Q 2275 144 1986 34  Q 1697 -75 1366 -75  Q 819 -75 525 192  Q 231 459 231 875  Q 231 1119 342 1320  Q 453 1522 633 1644  Q 813 1766 1038 1828  Q 1203 1872 1538 1913  Q 2219 1994 2541 2106  Q 2544 2222 2544 2253  Q 2544 2597 2384 2738  Q 2169 2928 1744 2928  Q 1347 2928 1158 2789  Q 969 2650 878 2297  L 328 2372  Q 403 2725 575 2942  Q 747 3159 1072 3276  Q 1397 3394 1825 3394  Q 2250 3394 2515 3294  Q 2781 3194 2906 3042  Q 3031 2891 3081 2659  Q 3109 2516 3109 2141  L 3109 1391  Q 3109 606 3145 398  Q 3181 191 3288 0  L 2700 0  Q 2613 175 2588 409  z M 2541 1666  Q 2234 1541 1622 1453  Q 1275 1403 1131 1340  Q 988 1278 909 1158  Q 831 1038 831 891  Q 831 666 1001 516  Q 1172 366 1500 366  Q 1825 366 2078 508  Q 2331 650 2450 897  Q 2541 1088 2541 1459  L 2541 1666  z " transform="scale(0.015625)" />
     </defs>
     <use xlink:href="#ArialMT-64" />
     <use xlink:href="#ArialMT-65" x="55.615234" />
     <use xlink:href="#ArialMT-61" x="111.230469" />
     <use xlink:href="#ArialMT-64" x="166.845703" />
    </g>
   </g>
  </g>
 </g>
</svg></g>


<g id="node2" class="node">
<title>node0</title>
<svg width="156px" height="85px" viewBox="0 0 208.75625 113.526875" version="1.1" preserveAspectRatio="xMinYMin meet" x="68" y="-300.5">
 <metadata>
  <rdf:RDF>
   <ns2:Work>
    <dc:type rdf:resource="http://purl.org/dc/dcmitype/StillImage" />
    <dc:date>2022-07-29T09:32:23.210850</dc:date>
    <dc:format>image/svg+xml</dc:format>
    <dc:creator>
     <ns2:Agent>
      <dc:title>Matplotlib v3.5.2, https://matplotlib.org/</dc:title>
     </ns2:Agent>
    </dc:creator>
   </ns2:Work>
  </rdf:RDF>
 </metadata>
 <defs>
  <style type="text/css">*{stroke-linejoin: round; stroke-linecap: butt}</style>
 </defs>
 <g id="figure_1">
  <g id="patch_1">
   <path d="M 0 113.526875  L 208.75625 113.526875  L 208.75625 -0  L 0 -0  L 0 113.526875  z " style="fill: none" />
  </g>
  <g id="axes_1">
   <g id="patch_2">
    <path d="M 24.61625 81.54  L 208.75625 81.54  L 208.75625 0  L 24.61625 0  z " style="fill: #ffffff" />
   </g>
   <g id="matplotlib.axis_1">
    <g id="xtick_1">
     <g id="line2d_1">
      <path d="M 31.222169 81.54  L 31.222169 0  " clip-path="url(#p005837fd35)" style="fill: none; stroke: #cccccc; stroke-linecap: round" />
     </g>
     <g id="text_1">
      
      <g style="fill: #444443" transform="translate(28.702794 97.0325)scale(0.08 -0.08)">
       <defs>
        <path id="IPAexGothic-31" d="M 2463 63  L 1900 63  L 1900 4103  Q 1372 3922 788 3797  L 684 4231  Q 1519 4441 2106 4731  L 2463 4731  L 2463 63  z " transform="scale(0.015625)" />
       </defs>
       <use xlink:href="#IPAexGothic-31" />
      </g>
     </g>
    </g>
    <g id="xtick_2">
     <g id="line2d_2">
      <path d="M 196.370151 81.54  L 196.370151 0  " clip-path="url(#p005837fd35)" style="fill: none; stroke: #cccccc; stroke-linecap: round" />
     </g>
     <g id="text_2">
      
      <g style="fill: #444443" transform="translate(193.850776 97.0325)scale(0.08 -0.08)">
       <defs>
        <path id="IPAexGothic-33" d="M 2381 2419  Q 3506 2216 3506 1278  Q 3506 716 3128 356  Q 2709 -31 1944 -31  Q 797 -31 288 881  L 756 1131  Q 1109 441 1938 441  Q 2425 441 2694 691  Q 2950 928 2950 1291  Q 2950 1719 2566 1978  Q 2216 2213 1644 2213  L 1363 2213  L 1363 2669  L 1656 2669  Q 2231 2669 2534 2888  Q 2859 3119 2859 3509  Q 2859 3934 2494 4138  Q 2259 4278 1931 4278  Q 1238 4278 903 3578  L 434 3803  Q 897 4725 1938 4725  Q 2597 4725 3006 4394  Q 3416 4069 3416 3534  Q 3416 3028 3019 2706  Q 2763 2500 2381 2444  L 2381 2419  z " transform="scale(0.015625)" />
       </defs>
       <use xlink:href="#IPAexGothic-33" />
      </g>
     </g>
    </g>
    <g id="text_3">
     
     <g style="fill: #444443" transform="translate(99.014375 111.141875)scale(0.12 -0.12)">
      <defs>
       <path id="ArialMT-50" d="M 494 0  L 494 4581  L 2222 4581  Q 2678 4581 2919 4538  Q 3256 4481 3484 4323  Q 3713 4166 3852 3881  Q 3991 3597 3991 3256  Q 3991 2672 3619 2267  Q 3247 1863 2275 1863  L 1100 1863  L 1100 0  L 494 0  z M 1100 2403  L 2284 2403  Q 2872 2403 3119 2622  Q 3366 2841 3366 3238  Q 3366 3525 3220 3729  Q 3075 3934 2838 4000  Q 2684 4041 2272 4041  L 1100 4041  L 1100 2403  z " transform="scale(0.015625)" />
       <path id="ArialMT-63" d="M 2588 1216  L 3141 1144  Q 3050 572 2676 248  Q 2303 -75 1759 -75  Q 1078 -75 664 370  Q 250 816 250 1647  Q 250 2184 428 2587  Q 606 2991 970 3192  Q 1334 3394 1763 3394  Q 2303 3394 2647 3120  Q 2991 2847 3088 2344  L 2541 2259  Q 2463 2594 2264 2762  Q 2066 2931 1784 2931  Q 1359 2931 1093 2626  Q 828 2322 828 1663  Q 828 994 1084 691  Q 1341 388 1753 388  Q 2084 388 2306 591  Q 2528 794 2588 1216  z " transform="scale(0.015625)" />
       <path id="ArialMT-6c" d="M 409 0  L 409 4581  L 972 4581  L 972 0  L 409 0  z " transform="scale(0.015625)" />
       <path id="ArialMT-61" d="M 2588 409  Q 2275 144 1986 34  Q 1697 -75 1366 -75  Q 819 -75 525 192  Q 231 459 231 875  Q 231 1119 342 1320  Q 453 1522 633 1644  Q 813 1766 1038 1828  Q 1203 1872 1538 1913  Q 2219 1994 2541 2106  Q 2544 2222 2544 2253  Q 2544 2597 2384 2738  Q 2169 2928 1744 2928  Q 1347 2928 1158 2789  Q 969 2650 878 2297  L 328 2372  Q 403 2725 575 2942  Q 747 3159 1072 3276  Q 1397 3394 1825 3394  Q 2250 3394 2515 3294  Q 2781 3194 2906 3042  Q 3031 2891 3081 2659  Q 3109 2516 3109 2141  L 3109 1391  Q 3109 606 3145 398  Q 3181 191 3288 0  L 2700 0  Q 2613 175 2588 409  z M 2541 1666  Q 2234 1541 1622 1453  Q 1275 1403 1131 1340  Q 988 1278 909 1158  Q 831 1038 831 891  Q 831 666 1001 516  Q 1172 366 1500 366  Q 1825 366 2078 508  Q 2331 650 2450 897  Q 2541 1088 2541 1459  L 2541 1666  z " transform="scale(0.015625)" />
       <path id="ArialMT-73" d="M 197 991  L 753 1078  Q 800 744 1014 566  Q 1228 388 1613 388  Q 2000 388 2187 545  Q 2375 703 2375 916  Q 2375 1106 2209 1216  Q 2094 1291 1634 1406  Q 1016 1563 777 1677  Q 538 1791 414 1992  Q 291 2194 291 2438  Q 291 2659 392 2848  Q 494 3038 669 3163  Q 800 3259 1026 3326  Q 1253 3394 1513 3394  Q 1903 3394 2198 3281  Q 2494 3169 2634 2976  Q 2775 2784 2828 2463  L 2278 2388  Q 2241 2644 2061 2787  Q 1881 2931 1553 2931  Q 1166 2931 1000 2803  Q 834 2675 834 2503  Q 834 2394 903 2306  Q 972 2216 1119 2156  Q 1203 2125 1616 2013  Q 2213 1853 2448 1751  Q 2684 1650 2818 1456  Q 2953 1263 2953 975  Q 2953 694 2789 445  Q 2625 197 2315 61  Q 2006 -75 1616 -75  Q 969 -75 630 194  Q 291 463 197 991  z " transform="scale(0.015625)" />
      </defs>
      <use xlink:href="#ArialMT-50" />
      <use xlink:href="#ArialMT-63" x="66.699219" />
      <use xlink:href="#ArialMT-6c" x="116.699219" />
      <use xlink:href="#ArialMT-61" x="138.916016" />
      <use xlink:href="#ArialMT-73" x="194.53125" />
      <use xlink:href="#ArialMT-73" x="244.53125" />
     </g>
    </g>
   </g>
   <g id="matplotlib.axis_2">
    <g id="ytick_1">
     <g id="line2d_3">
      <path d="M 24.61625 81.54  L 208.75625 81.54  " clip-path="url(#p005837fd35)" style="fill: none; stroke: #cccccc; stroke-linecap: round" />
     </g>
     <g id="text_4">
      
      <g style="fill: #444443" transform="translate(10.0775 84.53625)scale(0.08 -0.08)">
       <defs>
        <path id="IPAexGothic-30" d="M 2038 4725  Q 2881 4725 3334 3944  Q 3694 3325 3694 2344  Q 3694 1372 3334 741  Q 2888 -31 2016 -31  Q 1147 -31 700 741  Q 341 1372 341 2350  Q 341 3713 1000 4334  Q 1419 4725 2038 4725  z M 2016 4266  Q 1516 4266 1228 3759  Q 934 3247 934 2344  Q 934 1456 1222 947  Q 1513 447 2016 447  Q 2619 447 2909 1153  Q 3100 1622 3100 2375  Q 3100 3256 2806 3759  Q 2509 4266 2016 4266  z " transform="scale(0.015625)" />
       </defs>
       <use xlink:href="#IPAexGothic-30" />
      </g>
     </g>
    </g>
    <g id="ytick_2">
     <g id="line2d_4">
      <path d="M 24.61625 3.882857  L 208.75625 3.882857  " clip-path="url(#p005837fd35)" style="fill: none; stroke: #cccccc; stroke-linecap: round" />
     </g>
     <g id="text_5">
      
      <g style="fill: #444443" transform="translate(0 6.879107)scale(0.08 -0.08)">
       <defs>
        <path id="IPAexGothic-34" d="M 3813 1159  L 3059 1159  L 3059 63  L 2547 63  L 2547 1159  L 197 1159  L 197 1672  L 2456 4678  L 3059 4678  L 3059 1634  L 3813 1634  L 3813 1159  z M 2578 4109  L 2559 4109  Q 2278 3656 2003 3284  L 759 1634  L 2547 1634  L 2547 3144  Q 2547 3481 2578 4109  z " transform="scale(0.015625)" />
        <path id="IPAexGothic-39" d="M 2984 2356  Q 2544 1716 1813 1716  Q 1253 1716 847 2056  Q 366 2459 366 3163  Q 366 3813 769 4266  Q 1181 4725 1869 4725  Q 2800 4725 3241 3950  Q 3559 3378 3559 2472  Q 3559 1250 3041 588  Q 2553 -31 1769 -31  Q 859 -31 391 703  L 853 953  Q 1156 428 1753 428  Q 2922 428 3009 2356  L 2984 2356  z M 1888 4278  Q 1450 4278 1172 3950  Q 922 3653 922 3200  Q 922 2741 1159 2478  Q 1434 2163 1906 2163  Q 2431 2163 2728 2572  Q 2925 2847 2925 3169  Q 2925 3553 2694 3863  Q 2375 4278 1888 4278  z " transform="scale(0.015625)" />
       </defs>
       <use xlink:href="#IPAexGothic-34" />
       <use xlink:href="#IPAexGothic-39" x="62.988281" />
       <use xlink:href="#IPAexGothic-31" x="125.976562" />
      </g>
     </g>
    </g>
   </g>
   <g id="patch_3">
    <path d="M 31.222169 81.54  L 39.914168 81.54  L 39.914168 68.887105  L 31.222169 68.887105  z " clip-path="url(#p005837fd35)" style="fill: #fefebb; stroke: #444443; stroke-width: 0.5; stroke-linejoin: miter" />
   </g>
   <g id="patch_4">
    <path d="M 39.914168 81.54  L 48.606167 81.54  L 48.606167 81.54  L 39.914168 81.54  z " clip-path="url(#p005837fd35)" style="fill: #fefebb; stroke: #444443; stroke-width: 0.5; stroke-linejoin: miter" />
   </g>
   <g id="patch_5">
    <path d="M 48.606167 81.54  L 57.298166 81.54  L 57.298166 81.54  L 48.606167 81.54  z " clip-path="url(#p005837fd35)" style="fill: #fefebb; stroke: #444443; stroke-width: 0.5; stroke-linejoin: miter" />
   </g>
   <g id="patch_6">
    <path d="M 57.298166 81.54  L 65.990166 81.54  L 65.990166 81.54  L 57.298166 81.54  z " clip-path="url(#p005837fd35)" style="fill: #fefebb; stroke: #444443; stroke-width: 0.5; stroke-linejoin: miter" />
   </g>
   <g id="patch_7">
    <path d="M 65.990166 81.54  L 74.682165 81.54  L 74.682165 81.54  L 65.990166 81.54  z " clip-path="url(#p005837fd35)" style="fill: #fefebb; stroke: #444443; stroke-width: 0.5; stroke-linejoin: miter" />
   </g>
   <g id="patch_8">
    <path d="M 74.682165 81.54  L 83.374164 81.54  L 83.374164 81.54  L 74.682165 81.54  z " clip-path="url(#p005837fd35)" style="fill: #fefebb; stroke: #444443; stroke-width: 0.5; stroke-linejoin: miter" />
   </g>
   <g id="patch_9">
    <path d="M 83.374164 81.54  L 92.066163 81.54  L 92.066163 81.54  L 83.374164 81.54  z " clip-path="url(#p005837fd35)" style="fill: #fefebb; stroke: #444443; stroke-width: 0.5; stroke-linejoin: miter" />
   </g>
   <g id="patch_10">
    <path d="M 92.066163 81.54  L 100.758162 81.54  L 100.758162 81.54  L 92.066163 81.54  z " clip-path="url(#p005837fd35)" style="fill: #fefebb; stroke: #444443; stroke-width: 0.5; stroke-linejoin: miter" />
   </g>
   <g id="patch_11">
    <path d="M 100.758162 81.54  L 109.450161 81.54  L 109.450161 81.54  L 100.758162 81.54  z " clip-path="url(#p005837fd35)" style="fill: #fefebb; stroke: #444443; stroke-width: 0.5; stroke-linejoin: miter" />
   </g>
   <g id="patch_12">
    <path d="M 109.450161 81.54  L 118.14216 81.54  L 118.14216 66.198365  L 109.450161 66.198365  z " clip-path="url(#p005837fd35)" style="fill: #fefebb; stroke: #444443; stroke-width: 0.5; stroke-linejoin: miter" />
   </g>
   <g id="patch_13">
    <path d="M 118.14216 81.54  L 126.834159 81.54  L 126.834159 81.54  L 118.14216 81.54  z " clip-path="url(#p005837fd35)" style="fill: #fefebb; stroke: #444443; stroke-width: 0.5; stroke-linejoin: miter" />
   </g>
   <g id="patch_14">
    <path d="M 126.834159 81.54  L 135.526158 81.54  L 135.526158 81.54  L 126.834159 81.54  z " clip-path="url(#p005837fd35)" style="fill: #fefebb; stroke: #444443; stroke-width: 0.5; stroke-linejoin: miter" />
   </g>
   <g id="patch_15">
    <path d="M 135.526158 81.54  L 144.218157 81.54  L 144.218157 81.54  L 135.526158 81.54  z " clip-path="url(#p005837fd35)" style="fill: #fefebb; stroke: #444443; stroke-width: 0.5; stroke-linejoin: miter" />
   </g>
   <g id="patch_16">
    <path d="M 144.218157 81.54  L 152.910156 81.54  L 152.910156 81.54  L 144.218157 81.54  z " clip-path="url(#p005837fd35)" style="fill: #fefebb; stroke: #444443; stroke-width: 0.5; stroke-linejoin: miter" />
   </g>
   <g id="patch_17">
    <path d="M 152.910156 81.54  L 161.602155 81.54  L 161.602155 81.54  L 152.910156 81.54  z " clip-path="url(#p005837fd35)" style="fill: #fefebb; stroke: #444443; stroke-width: 0.5; stroke-linejoin: miter" />
   </g>
   <g id="patch_18">
    <path d="M 161.602155 81.54  L 170.294154 81.54  L 170.294154 81.54  L 161.602155 81.54  z " clip-path="url(#p005837fd35)" style="fill: #fefebb; stroke: #444443; stroke-width: 0.5; stroke-linejoin: miter" />
   </g>
   <g id="patch_19">
    <path d="M 170.294154 81.54  L 178.986153 81.54  L 178.986153 81.54  L 170.294154 81.54  z " clip-path="url(#p005837fd35)" style="fill: #fefebb; stroke: #444443; stroke-width: 0.5; stroke-linejoin: miter" />
   </g>
   <g id="patch_20">
    <path d="M 178.986153 81.54  L 187.678152 81.54  L 187.678152 81.54  L 178.986153 81.54  z " clip-path="url(#p005837fd35)" style="fill: #fefebb; stroke: #444443; stroke-width: 0.5; stroke-linejoin: miter" />
   </g>
   <g id="patch_21">
    <path d="M 187.678152 81.54  L 196.370151 81.54  L 196.370151 22.704038  L 187.678152 22.704038  z " clip-path="url(#p005837fd35)" style="fill: #fefebb; stroke: #444443; stroke-width: 0.5; stroke-linejoin: miter" />
   </g>
   <g id="patch_22">
    <path d="M 31.222169 68.887105  L 39.914168 68.887105  L 39.914168 47.377184  L 31.222169 47.377184  z " clip-path="url(#p005837fd35)" style="fill: #a1dab4; stroke: #444443; stroke-width: 0.5; stroke-linejoin: miter" />
   </g>
   <g id="patch_23">
    <path d="M 39.914168 81.54  L 48.606167 81.54  L 48.606167 81.54  L 39.914168 81.54  z " clip-path="url(#p005837fd35)" style="fill: #a1dab4; stroke: #444443; stroke-width: 0.5; stroke-linejoin: miter" />
   </g>
   <g id="patch_24">
    <path d="M 48.606167 81.54  L 57.298166 81.54  L 57.298166 81.54  L 48.606167 81.54  z " clip-path="url(#p005837fd35)" style="fill: #a1dab4; stroke: #444443; stroke-width: 0.5; stroke-linejoin: miter" />
   </g>
   <g id="patch_25">
    <path d="M 57.298166 81.54  L 65.990166 81.54  L 65.990166 81.54  L 57.298166 81.54  z " clip-path="url(#p005837fd35)" style="fill: #a1dab4; stroke: #444443; stroke-width: 0.5; stroke-linejoin: miter" />
   </g>
   <g id="patch_26">
    <path d="M 65.990166 81.54  L 74.682165 81.54  L 74.682165 81.54  L 65.990166 81.54  z " clip-path="url(#p005837fd35)" style="fill: #a1dab4; stroke: #444443; stroke-width: 0.5; stroke-linejoin: miter" />
   </g>
   <g id="patch_27">
    <path d="M 74.682165 81.54  L 83.374164 81.54  L 83.374164 81.54  L 74.682165 81.54  z " clip-path="url(#p005837fd35)" style="fill: #a1dab4; stroke: #444443; stroke-width: 0.5; stroke-linejoin: miter" />
   </g>
   <g id="patch_28">
    <path d="M 83.374164 81.54  L 92.066163 81.54  L 92.066163 81.54  L 83.374164 81.54  z " clip-path="url(#p005837fd35)" style="fill: #a1dab4; stroke: #444443; stroke-width: 0.5; stroke-linejoin: miter" />
   </g>
   <g id="patch_29">
    <path d="M 92.066163 81.54  L 100.758162 81.54  L 100.758162 81.54  L 92.066163 81.54  z " clip-path="url(#p005837fd35)" style="fill: #a1dab4; stroke: #444443; stroke-width: 0.5; stroke-linejoin: miter" />
   </g>
   <g id="patch_30">
    <path d="M 100.758162 81.54  L 109.450161 81.54  L 109.450161 81.54  L 100.758162 81.54  z " clip-path="url(#p005837fd35)" style="fill: #a1dab4; stroke: #444443; stroke-width: 0.5; stroke-linejoin: miter" />
   </g>
   <g id="patch_31">
    <path d="M 109.450161 66.198365  L 118.14216 66.198365  L 118.14216 52.438342  L 109.450161 52.438342  z " clip-path="url(#p005837fd35)" style="fill: #a1dab4; stroke: #444443; stroke-width: 0.5; stroke-linejoin: miter" />
   </g>
   <g id="patch_32">
    <path d="M 118.14216 81.54  L 126.834159 81.54  L 126.834159 81.54  L 118.14216 81.54  z " clip-path="url(#p005837fd35)" style="fill: #a1dab4; stroke: #444443; stroke-width: 0.5; stroke-linejoin: miter" />
   </g>
   <g id="patch_33">
    <path d="M 126.834159 81.54  L 135.526158 81.54  L 135.526158 81.54  L 126.834159 81.54  z " clip-path="url(#p005837fd35)" style="fill: #a1dab4; stroke: #444443; stroke-width: 0.5; stroke-linejoin: miter" />
   </g>
   <g id="patch_34">
    <path d="M 135.526158 81.54  L 144.218157 81.54  L 144.218157 81.54  L 135.526158 81.54  z " clip-path="url(#p005837fd35)" style="fill: #a1dab4; stroke: #444443; stroke-width: 0.5; stroke-linejoin: miter" />
   </g>
   <g id="patch_35">
    <path d="M 144.218157 81.54  L 152.910156 81.54  L 152.910156 81.54  L 144.218157 81.54  z " clip-path="url(#p005837fd35)" style="fill: #a1dab4; stroke: #444443; stroke-width: 0.5; stroke-linejoin: miter" />
   </g>
   <g id="patch_36">
    <path d="M 152.910156 81.54  L 161.602155 81.54  L 161.602155 81.54  L 152.910156 81.54  z " clip-path="url(#p005837fd35)" style="fill: #a1dab4; stroke: #444443; stroke-width: 0.5; stroke-linejoin: miter" />
   </g>
   <g id="patch_37">
    <path d="M 161.602155 81.54  L 170.294154 81.54  L 170.294154 81.54  L 161.602155 81.54  z " clip-path="url(#p005837fd35)" style="fill: #a1dab4; stroke: #444443; stroke-width: 0.5; stroke-linejoin: miter" />
   </g>
   <g id="patch_38">
    <path d="M 170.294154 81.54  L 178.986153 81.54  L 178.986153 81.54  L 170.294154 81.54  z " clip-path="url(#p005837fd35)" style="fill: #a1dab4; stroke: #444443; stroke-width: 0.5; stroke-linejoin: miter" />
   </g>
   <g id="patch_39">
    <path d="M 178.986153 81.54  L 187.678152 81.54  L 187.678152 81.54  L 178.986153 81.54  z " clip-path="url(#p005837fd35)" style="fill: #a1dab4; stroke: #444443; stroke-width: 0.5; stroke-linejoin: miter" />
   </g>
   <g id="patch_40">
    <path d="M 187.678152 22.704038  L 196.370151 22.704038  L 196.370151 3.882857  L 187.678152 3.882857  z " clip-path="url(#p005837fd35)" style="fill: #a1dab4; stroke: #444443; stroke-width: 0.5; stroke-linejoin: miter" />
   </g>
   <g id="patch_41">
    <path d="M 155.083156 82.3554  L 151.768636 89.694  L 158.397676 89.694  z " style="fill: #444443; stroke: #ffffff; stroke-linejoin: miter" />
   </g>
   <g id="patch_42">
    <path d="M 24.61625 81.54  L 24.61625 0  " style="fill: none; stroke: #cccccc; stroke-width: 0.3; stroke-linejoin: miter; stroke-linecap: square" />
   </g>
   <g id="patch_43">
    <path d="M 24.61625 81.54  L 208.75625 81.54  " style="fill: none; stroke: #cccccc; stroke-width: 0.3; stroke-linejoin: miter; stroke-linecap: square" />
   </g>
   <g id="text_6">
    
    <g style="fill: #444443" transform="translate(147.298781 97.848)scale(0.08 -0.08)">
     <defs>
      <path id="ArialMT-32" d="M 3222 541  L 3222 0  L 194 0  Q 188 203 259 391  Q 375 700 629 1000  Q 884 1300 1366 1694  Q 2113 2306 2375 2664  Q 2638 3022 2638 3341  Q 2638 3675 2398 3904  Q 2159 4134 1775 4134  Q 1369 4134 1125 3890  Q 881 3647 878 3216  L 300 3275  Q 359 3922 746 4261  Q 1134 4600 1788 4600  Q 2447 4600 2831 4234  Q 3216 3869 3216 3328  Q 3216 3053 3103 2787  Q 2991 2522 2730 2228  Q 2469 1934 1863 1422  Q 1356 997 1212 845  Q 1069 694 975 541  L 3222 541  z " transform="scale(0.015625)" />
      <path id="ArialMT-2e" d="M 581 0  L 581 641  L 1222 641  L 1222 0  L 581 0  z " transform="scale(0.015625)" />
      <path id="ArialMT-35" d="M 266 1200  L 856 1250  Q 922 819 1161 601  Q 1400 384 1738 384  Q 2144 384 2425 690  Q 2706 997 2706 1503  Q 2706 1984 2436 2262  Q 2166 2541 1728 2541  Q 1456 2541 1237 2417  Q 1019 2294 894 2097  L 366 2166  L 809 4519  L 3088 4519  L 3088 3981  L 1259 3981  L 1013 2750  Q 1425 3038 1878 3038  Q 2478 3038 2890 2622  Q 3303 2206 3303 1553  Q 3303 931 2941 478  Q 2500 -78 1738 -78  Q 1113 -78 717 272  Q 322 622 266 1200  z " transform="scale(0.015625)" />
      <path id="ArialMT-30" d="M 266 2259  Q 266 3072 433 3567  Q 600 4063 929 4331  Q 1259 4600 1759 4600  Q 2128 4600 2406 4451  Q 2684 4303 2865 4023  Q 3047 3744 3150 3342  Q 3253 2941 3253 2259  Q 3253 1453 3087 958  Q 2922 463 2592 192  Q 2263 -78 1759 -78  Q 1097 -78 719 397  Q 266 969 266 2259  z M 844 2259  Q 844 1131 1108 757  Q 1372 384 1759 384  Q 2147 384 2411 759  Q 2675 1134 2675 2259  Q 2675 3391 2411 3762  Q 2147 4134 1753 4134  Q 1366 4134 1134 3806  Q 844 3388 844 2259  z " transform="scale(0.015625)" />
     </defs>
     <use xlink:href="#ArialMT-32" />
     <use xlink:href="#ArialMT-2e" x="55.615234" />
     <use xlink:href="#ArialMT-35" x="83.398438" />
     <use xlink:href="#ArialMT-30" x="139.013672" />
    </g>
   </g>
  </g>
 </g>
 <defs>
  <clipPath id="p005837fd35">
   <rect x="24.61625" y="0" width="184.14" height="81.54" />
  </clipPath>
 </defs>
</svg></g>

<g id="edge4" class="edge">
<title>node0-&gt;node1</title>
<path fill="none" stroke="#444443" stroke-width="0.3" d="M120.89,-211.79C113.27,-197.93 105.11,-183.07 98.24,-170.56" />
<polygon fill="#444443" stroke="#444443" stroke-width="0.3" points="99.3,-169.59 96.15,-166.76 96.85,-170.94 99.3,-169.59" />
<text text-anchor="start" x="116" y="-192.8" font-family="Times,serif" font-size="14.00">&#8804;</text>
</g>

<g id="edge5" class="edge">
<title>node0-&gt;leaf4</title>
<path fill="none" stroke="#444443" stroke-width="0.3" d="M171.5,-211.79C176.42,-202.98 181.56,-193.76 186.45,-185.01" />
<polygon fill="#444443" stroke="#444443" stroke-width="0.3" points="187.8,-185.46 188.52,-181.28 185.35,-184.09 187.8,-185.46" />
<text text-anchor="start" x="183" y="-192.8" font-family="Times,serif" font-size="14.00">&gt;</text>
</g>


<g id="node6" class="node">
<title>legend</title>
<polygon fill="none" stroke="black" stroke-width="0" points="288.5,-281.5 235.5,-281.5 235.5,-235.5 288.5,-235.5 288.5,-281.5" />
<svg width="49px" height="42px" viewBox="0 0 65.69375 57.365625" version="1.1" preserveAspectRatio="xMinYMin meet" x="238" y="-279.5">
 <metadata>
  <rdf:RDF>
   <ns2:Work>
    <dc:type rdf:resource="http://purl.org/dc/dcmitype/StillImage" />
    <dc:date>2022-07-29T09:32:23.052605</dc:date>
    <dc:format>image/svg+xml</dc:format>
    <dc:creator>
     <ns2:Agent>
      <dc:title>Matplotlib v3.5.2, https://matplotlib.org/</dc:title>
     </ns2:Agent>
    </dc:creator>
   </ns2:Work>
  </rdf:RDF>
 </metadata>
 <defs>
  <style type="text/css">*{stroke-linejoin: round; stroke-linecap: butt}</style>
 </defs>
 <g id="figure_1">
  <g id="patch_1">
   <path d="M 0 57.365625  L 65.69375 57.365625  L 65.69375 0  L 0 0  L 0 57.365625  z " style="fill: none" />
  </g>
  <g id="axes_1">
   <g id="legend_1">
    <g id="patch_2">
     <path d="M 2.2 57.365625  L 63.49375 57.365625  Q 65.69375 57.365625 65.69375 55.165625  L 65.69375 2.2  Q 65.69375 -0 63.49375 -0  L 2.2 -0  Q 0 -0 0 2.2  L 0 55.165625  Q 0 57.365625 2.2 57.365625  z " style="fill: #ffffff; opacity: 0.8; stroke: #444443; stroke-width: 0.5; stroke-linejoin: miter" />
    </g>
    <g id="text_1">
     
     <g style="fill: #444443" transform="translate(12.878125 16.290625)scale(0.1 -0.1)">
      <defs>
       <path id="IPAexGothic-53" d="M 2919 3641  Q 2563 4259 1853 4259  Q 1453 4259 1213 4009  Q 1028 3803 1028 3534  Q 1028 3238 1266 3047  Q 1444 2913 1984 2688  L 2200 2597  Q 2925 2306 3191 1953  Q 3422 1644 3422 1259  Q 3422 644 2969 288  Q 2559 -31 1931 -31  Q 881 -31 313 766  L 753 1100  Q 1203 459 1938 459  Q 2288 459 2534 625  Q 2841 847 2841 1216  Q 2841 1503 2616 1728  Q 2375 1959 1728 2206  L 1541 2278  Q 453 2694 453 3481  Q 453 4006 806 4347  Q 1203 4725 1863 4725  Q 2841 4725 3359 3956  L 2919 3641  z " transform="scale(0.015625)" />
       <path id="IPAexGothic-75" d="M 3284 63  L 2772 63  L 2772 644  Q 2300 0 1625 0  Q 1072 0 763 375  Q 519 678 519 1241  L 519 3250  L 1069 3250  L 1069 1259  Q 1069 466 1734 466  Q 2406 466 2734 1291  L 2734 3250  L 3284 3250  L 3284 63  z " transform="scale(0.015625)" />
       <path id="IPAexGothic-72" d="M 2309 3316  L 2213 2769  Q 2106 2791 2022 2791  Q 1653 2791 1413 2444  Q 1113 2006 1113 1675  L 1113 63  L 563 63  L 563 3250  L 1081 3250  L 1056 2303  L 1069 2303  Q 1422 3341 2097 3341  Q 2206 3341 2309 3316  z " transform="scale(0.015625)" />
       <path id="IPAexGothic-76" d="M 3103 3250  L 1747 6  L 1375 6  L 25 3250  L 628 3250  L 1338 1388  L 1522 844  L 1569 703  L 1588 703  Q 1641 884 1822 1388  L 2516 3250  L 3103 3250  z " transform="scale(0.015625)" />
       <path id="IPAexGothic-69" d="M 1178 3928  L 550 3928  L 550 4569  L 1178 4569  L 1178 3928  z M 1138 63  L 588 63  L 588 3250  L 1138 3250  L 1138 63  z " transform="scale(0.015625)" />
       <path id="IPAexGothic-65" d="M 863 1594  Q 891 1041 1209 722  Q 1534 397 1997 397  Q 2606 397 2963 966  L 3322 728  Q 2869 -31 1931 -31  Q 1222 -31 766 422  Q 306 884 306 1641  Q 306 2444 788 2925  Q 1216 3353 1856 3353  Q 2459 3353 2866 2956  Q 3322 2494 3322 1722  L 3322 1594  L 863 1594  z M 2756 1997  Q 2709 2431 2450 2681  Q 2194 2938 1844 2938  Q 1438 2938 1150 2591  Q 953 2356 894 1997  L 2756 1997  z " transform="scale(0.015625)" />
       <path id="IPAexGothic-64" d="M 3391 63  L 2891 63  L 2891 619  Q 2441 -31 1753 -31  Q 1181 -31 788 372  Q 313 844 313 1663  Q 313 2466 772 2938  Q 1169 3341 1753 3341  Q 2384 3341 2847 2809  L 2847 4794  L 3391 4794  L 3391 63  z M 2847 1303  L 2847 2097  Q 2847 2413 2456 2706  Q 2181 2906 1853 2906  Q 1484 2906 1228 2650  Q 888 2309 888 1678  Q 888 1109 1169 750  Q 1441 409 1847 409  Q 2322 409 2656 875  Q 2847 1134 2847 1303  z " transform="scale(0.015625)" />
      </defs>
      <use xlink:href="#IPAexGothic-53" />
      <use xlink:href="#IPAexGothic-75" x="58.496094" />
      <use xlink:href="#IPAexGothic-72" x="118.896484" />
      <use xlink:href="#IPAexGothic-76" x="155.908203" />
      <use xlink:href="#IPAexGothic-69" x="204.492188" />
      <use xlink:href="#IPAexGothic-76" x="231.494141" />
      <use xlink:href="#IPAexGothic-65" x="280.078125" />
      <use xlink:href="#IPAexGothic-64" x="336.962891" />
     </g>
    </g>
    <g id="patch_3">
     <path d="M 8.8 31.390625  L 30.8 31.390625  L 30.8 23.690625  L 8.8 23.690625  z " style="fill: #fefebb; stroke: #444443; stroke-width: 0.4; stroke-linejoin: miter" />
    </g>
    <g id="text_2">
     
     <g style="fill: #444443" transform="translate(34.65 31.390625)scale(0.1 -0.1)">
      <defs>
       <path id="ArialMT-64" d="M 2575 0  L 2575 419  Q 2259 -75 1647 -75  Q 1250 -75 917 144  Q 584 363 401 755  Q 219 1147 219 1656  Q 219 2153 384 2558  Q 550 2963 881 3178  Q 1213 3394 1622 3394  Q 1922 3394 2156 3267  Q 2391 3141 2538 2938  L 2538 4581  L 3097 4581  L 3097 0  L 2575 0  z M 797 1656  Q 797 1019 1065 703  Q 1334 388 1700 388  Q 2069 388 2326 689  Q 2584 991 2584 1609  Q 2584 2291 2321 2609  Q 2059 2928 1675 2928  Q 1300 2928 1048 2622  Q 797 2316 797 1656  z " transform="scale(0.015625)" />
       <path id="ArialMT-65" d="M 2694 1069  L 3275 997  Q 3138 488 2766 206  Q 2394 -75 1816 -75  Q 1088 -75 661 373  Q 234 822 234 1631  Q 234 2469 665 2931  Q 1097 3394 1784 3394  Q 2450 3394 2872 2941  Q 3294 2488 3294 1666  Q 3294 1616 3291 1516  L 816 1516  Q 847 969 1125 678  Q 1403 388 1819 388  Q 2128 388 2347 550  Q 2566 713 2694 1069  z M 847 1978  L 2700 1978  Q 2663 2397 2488 2606  Q 2219 2931 1791 2931  Q 1403 2931 1139 2672  Q 875 2413 847 1978  z " transform="scale(0.015625)" />
       <path id="ArialMT-61" d="M 2588 409  Q 2275 144 1986 34  Q 1697 -75 1366 -75  Q 819 -75 525 192  Q 231 459 231 875  Q 231 1119 342 1320  Q 453 1522 633 1644  Q 813 1766 1038 1828  Q 1203 1872 1538 1913  Q 2219 1994 2541 2106  Q 2544 2222 2544 2253  Q 2544 2597 2384 2738  Q 2169 2928 1744 2928  Q 1347 2928 1158 2789  Q 969 2650 878 2297  L 328 2372  Q 403 2725 575 2942  Q 747 3159 1072 3276  Q 1397 3394 1825 3394  Q 2250 3394 2515 3294  Q 2781 3194 2906 3042  Q 3031 2891 3081 2659  Q 3109 2516 3109 2141  L 3109 1391  Q 3109 606 3145 398  Q 3181 191 3288 0  L 2700 0  Q 2613 175 2588 409  z M 2541 1666  Q 2234 1541 1622 1453  Q 1275 1403 1131 1340  Q 988 1278 909 1158  Q 831 1038 831 891  Q 831 666 1001 516  Q 1172 366 1500 366  Q 1825 366 2078 508  Q 2331 650 2450 897  Q 2541 1088 2541 1459  L 2541 1666  z " transform="scale(0.015625)" />
      </defs>
      <use xlink:href="#ArialMT-64" />
      <use xlink:href="#ArialMT-65" x="55.615234" />
      <use xlink:href="#ArialMT-61" x="111.230469" />
      <use xlink:href="#ArialMT-64" x="166.845703" />
     </g>
    </g>
    <g id="patch_4">
     <path d="M 8.8 46.578125  L 30.8 46.578125  L 30.8 38.878125  L 8.8 38.878125  z " style="fill: #a1dab4; stroke: #444443; stroke-width: 0.4; stroke-linejoin: miter" />
    </g>
    <g id="text_3">
     
     <g style="fill: #444443" transform="translate(34.65 46.578125)scale(0.1 -0.1)">
      <defs>
       <path id="ArialMT-6c" d="M 409 0  L 409 4581  L 972 4581  L 972 0  L 409 0  z " transform="scale(0.015625)" />
       <path id="ArialMT-69" d="M 425 3934  L 425 4581  L 988 4581  L 988 3934  L 425 3934  z M 425 0  L 425 3319  L 988 3319  L 988 0  L 425 0  z " transform="scale(0.015625)" />
       <path id="ArialMT-76" d="M 1344 0  L 81 3319  L 675 3319  L 1388 1331  Q 1503 1009 1600 663  Q 1675 925 1809 1294  L 2547 3319  L 3125 3319  L 1869 0  L 1344 0  z " transform="scale(0.015625)" />
      </defs>
      <use xlink:href="#ArialMT-61" />
      <use xlink:href="#ArialMT-6c" x="55.615234" />
      <use xlink:href="#ArialMT-69" x="77.832031" />
      <use xlink:href="#ArialMT-76" x="100.048828" />
      <use xlink:href="#ArialMT-65" x="150.048828" />
     </g>
    </g>
   </g>
  </g>
 </g>
</svg></g>
</g>
</svg>